<?xml version="1.0" standalone="no"?>
<!DOCTYPE svg PUBLIC "-//W3C//DTD SVG 20010904//EN"
 "http://www.w3.org/TR/2001/REC-SVG-20010904/DTD/svg10.dtd">
<svg version="1.0" xmlns="http://www.w3.org/2000/svg"
 width="1042.000000pt" height="1042.000000pt" viewBox="0 0 1042.000000 1042.000000"
 preserveAspectRatio="xMidYMid meet">
<metadata>
Created by potrace 1.11, written by Peter Selinger 2001-2013
</metadata>
<g transform="translate(0.000000,1042.000000) scale(0.100000,-0.100000)"
fill="#000000" stroke="none">
<path d="M5302 8291 c-19 -12 -12 -116 8 -116 11 0 16 14 18 54 3 57 -5 75
-26 62z"/>
<path d="M5075 8240 c-8 -14 44 -100 61 -100 20 0 17 22 -8 69 -21 40 -40 51
-53 31z"/>
<path d="M5484 8195 c-26 -45 -27 -79 -2 -70 20 8 62 90 54 104 -13 20 -25 12
-52 -34z"/>
<path d="M5250 8120 c-76 -22 -139 -71 -173 -135 -16 -30 -21 -58 -22 -115 0
-67 4 -83 39 -154 45 -93 61 -140 71 -209 2 -16 11 -39 19 -52 15 -22 20 -23
123 -22 l107 2 12 35 c7 19 20 59 28 88 9 29 37 94 61 145 56 114 64 165 39
243 -21 67 -80 133 -141 159 -43 19 -126 26 -163 15z m198 -63 c57 -41 96
-121 95 -193 -1 -42 -12 -75 -52 -158 -28 -58 -59 -134 -67 -168 -9 -35 -20
-68 -26 -75 -14 -18 -148 -12 -148 6 0 12 -3 11 -12 -2 -21 -27 -35 -7 -57 83
-12 46 -37 116 -55 155 -61 127 -65 147 -40 232 44 152 231 214 362 120z"/>
<path d="M5142 7948 c-23 -29 -30 -84 -15 -118 17 -41 19 -44 32 -36 6 4 4 17
-5 35 -17 33 -12 75 11 101 8 9 12 20 8 23 -10 10 -19 8 -31 -5z"/>
<path d="M5237 7666 c-4 -10 -1 -13 8 -9 8 3 12 9 9 14 -7 12 -11 11 -17 -5z"/>
<path d="M5285 7670 c-3 -6 1 -7 9 -4 18 7 21 14 7 14 -6 0 -13 -4 -16 -10z"/>
<path d="M5340 7659 c-7 -11 -9 -23 -7 -26 3 -2 8 5 12 16 6 19 25 30 25 15 0
-19 -24 -44 -42 -44 -16 0 -19 5 -15 22 5 19 3 18 -18 -7 -13 -17 -24 -25 -25
-19 0 6 -7 11 -15 11 -13 0 -14 -3 -3 -12 22 -20 96 -7 114 21 15 22 12 44 -6
44 -5 0 -14 -9 -20 -21z"/>
<path d="M5268 7643 c7 -3 16 -2 19 1 4 3 -2 6 -13 5 -11 0 -14 -3 -6 -6z"/>
<path d="M5257 7571 c-4 -17 -3 -21 5 -13 5 5 8 16 6 23 -3 8 -7 3 -11 -10z"/>
<path d="M5251 7504 c0 -11 3 -14 6 -6 3 7 2 16 -1 19 -3 4 -6 -2 -5 -13z"/>
<path d="M4930 8082 c0 -14 16 -28 50 -46 43 -23 51 -24 56 -11 4 9 5 17 3 19
-31 23 -69 45 -86 50 -19 6 -23 3 -23 -12z"/>
<path d="M5615 8057 c-41 -23 -60 -57 -30 -57 27 0 95 44 93 59 -4 22 -19 21
-63 -2z"/>
<path d="M3985 7981 c-28 -4 -43 -13 -50 -28 -7 -16 -19 -23 -40 -24 -16 0
-39 -2 -50 -4 -11 -2 -42 -7 -70 -11 -27 -3 -61 -8 -75 -10 -14 -2 -47 -6 -75
-9 -27 -3 -74 -10 -104 -15 -71 -13 -68 -13 -74 11 -5 17 -11 19 -44 14 -77
-12 -83 -15 -83 -35 0 -13 -7 -20 -20 -20 -17 0 -45 -32 -35 -41 2 -3 6 -27
10 -54 3 -28 7 -61 10 -75 2 -14 6 -45 10 -70 13 -104 18 -136 21 -154 2 -10
6 -44 10 -75 3 -31 10 -66 15 -79 9 -24 16 -24 129 -7 14 2 48 7 75 10 28 3
61 8 75 10 37 7 79 13 135 20 28 3 77 10 110 15 33 5 83 12 110 15 28 4 61 8
74 10 13 2 45 7 70 10 25 4 59 9 75 12 l28 5 -7 67 c-4 36 -9 75 -11 86 -2 11
-6 38 -9 60 -2 22 -9 74 -15 115 -6 41 -13 91 -15 110 -6 51 -15 102 -21 112
-3 4 -20 8 -39 8 -20 0 -35 6 -39 15 -6 16 -14 16 -81 6z m93 -104 c4 -20 -3
-24 -70 -31 -54 -7 -58 -6 -58 14 0 11 1 20 3 20 1 1 20 3 42 6 22 4 41 7 43
9 9 8 37 -4 40 -18z m-238 -24 c48 -19 109 -79 132 -132 43 -94 19 -210 -58
-283 -120 -112 -310 -82 -389 64 -72 132 -9 302 130 353 49 17 138 17 185 -2z"/>
<path d="M3669 7837 c-54 -20 -97 -54 -127 -101 -22 -34 -27 -52 -27 -111 0
-107 43 -177 133 -216 141 -61 303 34 319 187 9 88 -34 176 -111 223 -43 27
-139 36 -187 18z m149 -74 c53 -25 91 -93 86 -156 -12 -131 -169 -199 -265
-115 -78 68 -80 177 -5 249 48 47 114 55 184 22z"/>
<path d="M3694 7759 c-32 -9 -93 -69 -95 -92 0 -7 -2 -23 -5 -36 -12 -65 54
-149 124 -158 49 -7 122 25 147 64 46 70 16 176 -60 213 -45 22 -63 23 -111 9z
m107 -78 c61 -62 20 -151 -71 -151 -36 0 -80 50 -80 92 0 41 48 88 90 88 22 0
41 -9 61 -29z"/>
<path d="M4908 7899 c-23 -15 9 -33 58 -34 34 -1 48 3 55 17 5 10 6 19 2 19
-39 6 -104 5 -115 -2z"/>
<path d="M5599 7883 c-18 -21 -3 -29 55 -32 56 -2 71 5 57 28 -11 17 -99 21
-112 4z"/>
<path d="M6813 7727 c-22 -37 -30 -43 -53 -39 -24 3 -29 -1 -48 -46 -15 -35
-30 -53 -51 -61 -35 -15 -87 -65 -107 -103 -9 -16 -17 -69 -20 -121 -7 -119
-28 -205 -59 -237 -19 -20 -22 -29 -13 -38 19 -19 32 -14 49 16 9 15 45 74 81
133 53 85 64 111 61 136 -6 40 25 61 63 44 40 -18 27 -81 -16 -81 -21 0 -184
-266 -176 -287 9 -22 39 -11 46 15 8 35 82 103 168 154 42 26 87 57 99 70 32
33 53 91 53 141 0 35 7 54 36 91 33 43 34 49 21 64 -14 15 -13 21 9 57 13 22
24 45 24 52 0 12 -112 83 -131 83 -5 0 -21 -19 -36 -43z"/>
<path d="M4958 7734 c-38 -24 -46 -38 -29 -49 17 -10 101 37 101 57 0 25 -27
22 -72 -8z"/>
<path d="M5564 7749 c-12 -20 74 -76 101 -65 21 8 12 21 -36 51 -43 28 -55 30
-65 14z"/>
<path d="M8496 7368 c-9 -35 -32 -133 -52 -218 -19 -85 -46 -202 -60 -260 -13
-58 -26 -115 -29 -127 -5 -19 -1 -23 20 -23 15 0 35 -5 46 -10 16 -9 19 -7 20
12 0 13 2 30 4 38 3 13 18 102 31 185 2 17 7 41 9 55 3 14 7 39 10 55 2 17 9
59 15 95 44 260 44 260 16 260 -8 0 -20 -25 -30 -62z"/>
<path d="M5185 7410 c-4 -7 -1 -16 6 -21 8 -5 9 -9 3 -9 -6 0 -11 -13 -11 -30
0 -16 5 -30 10 -30 5 0 23 -12 40 -26 26 -22 38 -25 71 -21 22 3 45 12 51 20
5 8 21 18 34 22 23 7 23 9 7 20 -9 7 -13 15 -7 16 5 2 11 18 13 34 l3 30 -106
3 c-75 2 -109 0 -114 -8z m148 -27 c-7 -2 -19 -2 -25 0 -7 3 -2 5 12 5 14 0
19 -2 13 -5z"/>
<path d="M2405 7324 c-79 -72 -171 -153 -215 -191 -24 -21 -51 -45 -60 -53 -8
-8 -69 -62 -135 -120 -66 -57 -122 -107 -125 -110 -3 -3 -63 -57 -135 -120
-172 -152 -183 -161 -234 -208 l-45 -39 74 -84 c107 -123 95 -114 118 -98 20
14 19 15 -9 43 -16 16 -29 34 -29 40 1 6 13 -4 29 -21 33 -39 41 -40 71 -9 21
23 21 26 6 41 -22 22 -20 32 2 12 27 -24 33 -22 82 28 34 35 41 48 32 57 -7 7
-12 17 -12 23 1 5 9 0 19 -12 l18 -22 28 29 c26 27 27 30 11 46 -9 9 -14 19
-11 23 4 3 11 -2 16 -12 6 -9 15 -17 22 -17 7 1 43 30 81 65 69 64 69 65 51
85 -16 18 -17 20 -2 14 9 -3 17 -10 17 -15 0 -19 18 -7 112 75 81 70 95 86 83
96 -8 7 -15 17 -15 23 0 5 9 2 19 -7 11 -10 25 -15 30 -11 15 8 14 38 -1 53
-9 9 -9 12 0 12 7 0 16 -10 21 -22 5 -15 10 -18 15 -9 5 7 0 21 -11 34 -34 37
-37 54 -4 20 17 -18 35 -33 41 -33 17 0 22 27 10 49 -6 12 -7 21 -2 21 5 0 13
-9 18 -20 9 -19 11 -18 49 17 22 21 73 67 113 103 l72 65 -57 65 c-32 35 -71
79 -88 97 l-30 33 -40 -36z m165 -187 c0 -6 -11 0 -25 13 -14 13 -25 28 -25
33 0 6 11 0 25 -13 14 -13 25 -28 25 -33z m-30 -12 c11 -13 10 -14 -4 -9 -9 3
-16 10 -16 15 0 13 6 11 20 -6z m-14 -32 c-7 -7 -26 7 -26 19 0 6 6 6 15 -2 9
-7 13 -15 11 -17z m-29 -8 c9 -24 -1 -27 -15 -5 -8 13 -8 20 -2 20 6 0 13 -7
17 -15z m-59 -25 c13 -16 19 -30 14 -30 -4 0 -18 14 -30 30 -13 17 -19 30 -14
30 4 0 18 -13 30 -30z m36 5 c3 -8 1 -15 -3 -15 -5 0 -11 7 -15 15 -3 8 -1 15
3 15 5 0 11 -7 15 -15z m-38 -52 c-7 -7 -26 7 -26 19 0 6 6 6 15 -2 9 -7 13
-15 11 -17z m-26 -8 c7 -8 8 -15 2 -15 -5 0 -15 7 -22 15 -7 8 -8 15 -2 15 5
0 15 -7 22 -15z m-42 -61 c-4 -3 -12 5 -18 18 -12 22 -12 22 6 6 10 -10 15
-20 12 -24z m-78 -39 c7 -9 8 -15 2 -15 -5 0 -12 7 -16 15 -3 8 -4 15 -2 15 2
0 9 -7 16 -15z m-60 -75 c0 -6 -11 2 -25 18 -14 17 -25 34 -25 38 0 5 11 -3
25 -18 14 -15 25 -32 25 -38z m20 35 c7 -8 8 -15 2 -15 -5 0 -15 7 -22 15 -7
8 -8 15 -2 15 5 0 15 -7 22 -15z m-44 -52 c-7 -7 -26 7 -26 19 0 6 6 6 15 -2
9 -7 13 -15 11 -17z m-20 -20 c-7 -7 -26 7 -26 19 0 6 6 6 15 -2 9 -7 13 -15
11 -17z m-26 -21 c0 -8 -1 -13 -3 -11 -1 2 -9 12 -16 22 -12 15 -12 17 3 11 9
-3 16 -13 16 -22z m-45 -41 c-6 -6 -55 44 -55 55 0 4 13 -5 30 -21 16 -16 27
-31 25 -34z m23 13 c-4 -3 -12 5 -18 18 -12 22 -12 22 6 6 10 -10 15 -20 12
-24z m-42 -31 c-7 -7 -26 7 -26 19 0 6 6 6 15 -2 9 -7 13 -15 11 -17z m-46
-45 c0 -6 -7 -5 -15 2 -8 7 -15 17 -15 22 0 6 7 5 15 -2 8 -7 15 -17 15 -22z
m-45 -36 c-7 -7 -55 39 -55 52 0 5 13 -3 30 -19 16 -16 28 -31 25 -33z m21 21
c-7 -7 -26 7 -26 19 0 6 6 6 15 -2 9 -7 13 -15 11 -17z m-52 -29 c9 -24 2 -26
-12 -4 -7 11 -8 20 -3 20 5 0 12 -7 15 -16z m-14 -36 c0 -6 -7 -5 -15 2 -8 7
-15 17 -15 22 0 6 7 5 15 -2 8 -7 15 -17 15 -22z m-20 -20 c0 -6 -7 -5 -15 2
-8 7 -15 17 -15 22 0 6 7 5 15 -2 8 -7 15 -17 15 -22z m-51 -43 c0 -5 -11 4
-24 20 -14 17 -25 35 -25 40 0 6 11 -3 25 -20 13 -16 24 -34 24 -40z m-19 -17
c0 -6 -7 -5 -15 2 -8 7 -15 17 -15 22 0 6 7 5 15 -2 8 -7 15 -17 15 -22z m-50
-36 c0 -8 -1 -13 -3 -11 -1 2 -9 12 -16 22 -12 15 -12 17 3 11 9 -3 16 -13 16
-22z m-40 -45 c0 -14 -39 23 -52 48 -8 14 -2 12 21 -9 17 -17 31 -34 31 -39z
m16 26 c-7 -7 -26 7 -26 19 0 6 6 6 15 -2 9 -7 13 -15 11 -17z m-46 -33 c9
-16 8 -18 -5 -14 -8 4 -15 12 -15 20 0 20 7 17 20 -6z m-40 -52 c0 -6 -7 -5
-15 2 -8 7 -15 17 -15 22 0 6 7 5 15 -2 8 -7 15 -17 15 -22z m-20 -20 c0 -6
-7 -5 -15 2 -8 7 -15 17 -15 22 0 6 7 5 15 -2 8 -7 15 -17 15 -22z"/>
<path d="M7674 7236 c-18 -8 -34 -19 -38 -24 -3 -6 16 -29 44 -52 55 -46 57
-51 35 -74 -17 -16 -52 -13 -96 9 -100 52 -151 -32 -94 -153 46 -99 178 -202
290 -226 17 -3 41 -9 55 -11 50 -11 176 -5 223 9 147 44 204 161 143 288 -29
61 -43 79 -107 130 -89 73 -223 118 -349 118 -41 -1 -89 -7 -106 -14z m177
-56 c23 -13 25 -36 3 -44 -48 -18 -113 6 -101 38 7 19 67 22 98 6z m259 -135
c53 -27 32 -68 -27 -55 -43 10 -68 33 -60 54 8 20 49 21 87 1z m-356 -47 c28
-12 43 -45 28 -60 -19 -19 -90 -22 -117 -4 -31 20 -32 40 -3 60 27 19 58 20
92 4z m364 -74 c28 -18 29 -51 1 -59 -33 -11 -87 4 -104 28 -20 29 -19 36 8
47 26 11 63 5 95 -16z m-170 -34 c27 -17 32 -25 26 -43 -10 -33 -19 -39 -62
-43 -74 -5 -132 57 -86 91 27 19 86 17 122 -5z"/>
<path d="M2886 6911 c-2 -3 -4 -132 -4 -286 0 -154 -1 -291 -1 -305 -1 -25 -2
-25 -94 -26 -70 0 -103 -5 -138 -21 -63 -28 -115 -77 -147 -137 l-27 -51 -3
-890 -2 -891 -113 -51 c-159 -73 -1044 -488 -1152 -541 -33 -16 -78 -37 -100
-48 -22 -10 -54 -34 -72 -53 -73 -78 -47 -213 50 -263 61 -31 114 -27 199 14
40 20 90 43 111 52 95 41 181 80 347 159 41 19 176 82 300 140 124 58 269 126
323 151 55 25 101 46 103 46 2 0 4 -272 4 -603 l0 -604 -326 1 c-179 1 -333
-2 -343 -6 -16 -6 -18 -15 -15 -69 8 -117 83 -209 214 -261 l55 -22 3190 -2
c2692 -1 3199 1 3250 13 177 41 274 169 256 338 -1 6 -121 10 -341 9 l-340 -1
0 621 c0 353 4 616 9 610 5 -5 65 -92 133 -194 69 -102 166 -246 217 -320 50
-74 91 -143 91 -153 0 -10 4 -16 9 -13 5 3 12 -6 15 -20 4 -15 10 -24 13 -21
3 4 13 -3 22 -14 16 -19 16 -19 54 6 l37 26 1 -23 c2 -35 6 -102 8 -110 0 -5
6 -8 12 -8 7 0 10 21 9 58 -3 77 -4 76 29 53 35 -25 47 -26 55 -6 3 8 11 15
17 15 15 0 38 30 39 51 0 14 72 124 191 294 30 43 151 219 263 384 17 25 33
48 36 51 3 3 30 41 60 85 29 44 77 115 106 157 l54 76 -53 36 c-28 19 -88 59
-131 90 -90 62 -83 64 -141 -28 -16 -25 -30 -44 -32 -42 -2 1 8 35 21 74 14
39 22 73 18 75 -4 3 -47 17 -97 32 -49 15 -99 31 -110 35 -32 13 -88 30 -90
28 -1 -2 -10 -28 -20 -58 -25 -79 -31 -79 -27 0 l4 70 -54 1 c-29 0 -101 3
-160 5 l-108 4 -1 -32 c-2 -49 -7 -160 -9 -183 -1 -11 -15 30 -32 90 -16 61
-32 112 -33 114 -7 6 -305 -81 -305 -90 0 -7 33 -129 77 -284 3 -11 -29 32
-72 95 -95 140 -111 161 -119 153 -3 -3 -6 345 -6 775 0 768 0 782 -21 837
-26 69 -88 137 -154 167 l-50 23 -885 1 -885 1 0 309 0 309 -1593 1 c-876 1
-1594 -2 -1596 -5z"/>
<path d="M8355 6720 c-43 -16 -57 -45 -59 -122 -1 -40 -8 -83 -15 -96 l-12
-23 33 17 c136 68 191 190 101 222 -16 5 -37 6 -48 2z"/>
<path d="M9242 6068 c-17 -9 -22 -17 -17 -32 16 -59 15 -71 -8 -87 -21 -16
-25 -16 -60 1 -39 19 -44 17 -65 -33 -11 -26 -10 -28 26 -45 31 -14 37 -22 38
-50 1 -23 -4 -35 -15 -39 -69 -22 -69 -22 -56 -61 15 -44 22 -47 65 -29 31 14
34 13 56 -12 l22 -26 -20 -38 c-11 -22 -18 -40 -16 -41 2 -1 19 -9 39 -18 l37
-17 17 39 c16 35 22 39 49 37 25 -2 35 -10 51 -43 l20 -41 35 14 c19 8 36 16
38 17 1 2 -4 21 -12 42 -13 38 -13 41 11 62 l24 22 39 -20 40 -20 19 39 20 38
-40 18 c-37 17 -40 21 -37 53 3 30 8 37 35 46 44 15 47 20 33 60 -13 40 -11
39 -60 22 -32 -12 -37 -11 -57 11 l-23 24 19 40 19 39 -39 20 -39 20 -20 -39
c-17 -34 -24 -39 -51 -38 -27 2 -34 7 -44 37 -13 38 -35 47 -73 28z m174 -192
c27 -27 33 -70 16 -105 -25 -54 -81 -71 -131 -40 -53 32 -62 87 -23 139 31 41
99 44 138 6z"/>
<path d="M8645 6048 c-44 -16 -56 -27 -45 -46 5 -10 13 -31 19 -49 8 -28 6
-34 -20 -57 l-29 -26 -50 21 c-28 12 -52 20 -54 18 -2 -2 -13 -23 -25 -46
l-21 -43 50 -25 c50 -25 51 -27 48 -67 -3 -38 -6 -42 -43 -55 -22 -7 -46 -15
-53 -18 -9 -3 -8 -14 4 -47 10 -24 20 -47 24 -51 4 -4 27 1 52 12 l45 19 31
-31 31 -30 -25 -50 c-14 -27 -24 -50 -22 -51 20 -14 81 -46 88 -46 4 0 18 22
31 49 21 48 22 49 63 46 39 -3 42 -5 60 -54 20 -55 20 -55 89 -29 31 12 32 17
12 73 -14 39 -14 41 15 70 l30 29 45 -22 c25 -12 49 -22 54 -22 9 0 46 89 40
94 -2 2 -23 13 -47 25 -41 21 -43 24 -40 63 3 39 5 41 54 59 l52 20 -17 44
c-9 24 -19 47 -22 50 -3 3 -27 -3 -53 -12 l-46 -17 -29 29 -29 30 23 50 23 50
-26 16 c-59 36 -69 34 -96 -19 -25 -49 -26 -50 -63 -45 -43 6 -49 12 -63 66
-11 39 -17 42 -65 25z m187 -239 c62 -44 58 -149 -6 -188 -84 -52 -172 -10
-183 89 -12 97 105 158 189 99z"/>
<path d="M1381 5853 c-18 -9 -45 -34 -59 -56 l-26 -40 -1 -226 c-2 -234 3
-270 43 -314 43 -47 57 -49 381 -48 168 0 314 2 323 4 26 5 75 43 95 74 16 24
18 56 19 258 2 239 -3 273 -44 318 -39 44 -68 47 -391 47 -264 0 -311 -3 -340
-17z m675 -46 c55 -29 59 -50 58 -296 0 -206 -2 -223 -21 -249 -37 -50 -46
-52 -371 -52 -294 0 -305 1 -334 21 -16 12 -34 33 -40 48 -15 39 -13 446 3
483 24 59 51 63 380 63 253 -1 298 -3 325 -18z"/>
<path d="M1566 5520 c1 -77 3 -142 5 -144 2 -2 88 28 191 68 103 39 184 73
180 77 -10 9 -352 139 -366 139 -8 0 -11 -41 -10 -140z"/>
</g>
</svg>
